<svg width="316" height="37" viewBox="0 0 316 37" fill="none" xmlns="http://www.w3.org/2000/svg">
<g clip-path="url(#clip0)">
<path d="M34.2063 1.31934V35.7475H28.8927V20.2136H5.31365V35.7475H0V1.31934H5.31365V14.8999H28.8927V1.31934H34.2063Z" fill="#020203"/>
<path d="M189.787 1.31934V35.562H184.473V20.2136H161.26V35.562H155.951V1.31934H161.26V14.8999H184.473V1.31934H189.787Z" fill="#020203"/>
<path d="M255.689 1.38672V6.70041H251.211V35.7324H245.897V6.70041H241.418V1.38672H255.689Z" fill="#020203"/>
<path d="M208.774 1.38672V6.70041H204.3V35.7324H198.986V6.70041H194.508V1.38672H208.774Z" fill="#020203"/>
<path d="M126.878 1.35059V6.65912H113.128V35.7324H107.814V1.35059H126.878Z" fill="#020203"/>
<path d="M265.925 35.748C264.353 35.7584 263.054 35.7687 262.92 35.7738V35.748H265.925Z" fill="#020203"/>
<path d="M277.634 17.7658L285.273 1.40723H260.611V35.7478H266.177C268.631 35.7272 271.615 35.7014 271.831 35.7014C278.227 35.7014 283.046 31.6607 283.046 26.2955C283.046 22.6878 280.876 19.5181 277.634 17.7658ZM265.925 6.72092H276.934L272.439 16.3433C272.238 16.333 272.037 16.3278 271.831 16.3278C271.78 16.3278 268.574 16.3381 265.925 16.3897V6.72092ZM271.831 30.3877C271.615 30.3877 268.605 30.4135 266.136 30.4341C266.064 30.4341 265.992 30.4341 265.925 30.4393V21.6982C268.177 21.6621 271.13 21.6415 271.831 21.6415C275.088 21.6415 277.732 23.7289 277.732 26.2955C277.732 28.9859 274.764 30.3877 271.831 30.3877Z" fill="#020203"/>
<path d="M154.029 27.2853C153.003 32.8515 148.143 36.8973 142.474 36.8973C135.99 36.8973 130.718 31.6249 130.718 25.1464C130.718 19.5905 134.588 14.9262 139.773 13.7047L131.749 6.5459L131.651 1.36621H150.854V6.6799H139.608L150.004 16.0807L146.968 19.2915L146.391 20.0337L146.293 19.9616C145.175 19.1369 143.855 18.704 142.474 18.704C138.923 18.704 136.032 21.5953 136.032 25.1464C136.032 28.6923 138.923 31.5836 142.474 31.5836C145.582 31.5836 148.241 29.3726 148.803 26.3215C148.849 26.0638 148.901 25.0949 148.906 24.7908L150.705 24.8062L154.214 24.6619C154.225 24.9299 154.173 26.4916 154.029 27.2853Z" fill="#020203"/>
<path d="M303.548 36.8301C300.997 36.8301 298.369 36.0107 295.864 34.3975C292.21 32.0473 289.221 28.2437 287.442 23.6877C283.659 13.988 286.608 3.74198 294.019 0.850632C301.43 -2.04072 310.537 3.49975 314.32 13.2046C316.098 17.7606 316.469 22.5847 315.371 26.7852C314.191 31.2948 311.485 34.583 307.738 36.0416C306.398 36.5673 304.986 36.8301 303.548 36.8301ZM298.183 5.39124C297.415 5.39124 296.668 5.52524 295.951 5.80355C291.349 7.59711 289.72 14.9054 292.39 21.7601C293.761 25.2802 296.018 28.1819 298.735 29.929C301.183 31.5061 303.698 31.9185 305.816 31.0938C307.934 30.2692 309.501 28.2643 310.238 25.4451C311.052 22.3167 310.748 18.6574 309.377 15.1373C307.12 9.34429 302.378 5.39124 298.183 5.39124Z" fill="#020203"/>
<path d="M229.848 36.8301C227.296 36.8301 224.668 36.0106 222.163 34.3974C218.509 32.0472 215.52 28.2436 213.742 23.6876C211.964 19.1315 211.593 14.3074 212.69 10.107C213.871 5.59731 216.576 2.30911 220.323 0.850551C226.745 -1.65425 234.62 2.14934 239.047 9.89053L234.435 12.5242C231.327 7.0868 226.209 4.25729 222.251 5.79832C220.138 6.62294 218.566 8.62782 217.829 11.447C217.014 14.5754 217.319 18.2347 218.689 21.7549C220.06 25.275 222.318 28.1766 225.034 29.9238C227.487 31.5009 230.002 31.9132 232.115 31.0886C234.502 30.1557 235.692 27.9859 236.269 26.3315L241.284 28.0736C239.949 31.9081 237.377 34.7376 234.043 36.0364C232.693 36.5672 231.28 36.8301 229.848 36.8301Z" fill="#020203"/>
<path d="M97.5012 1.31952V4.10779C96.2952 2.75231 94.8212 1.69576 93.1101 1.02575C91.7804 0.505201 90.3888 0.257812 88.9921 0.257812C82.5962 0.257812 75.9116 5.41689 72.8038 13.3745C71.0257 17.9306 70.6546 22.7547 71.7524 26.9551C72.9326 31.4648 75.6384 34.753 79.3853 36.2116C80.7304 36.7373 82.1426 37.0001 83.5805 37.0001C86.1317 37.0001 88.7602 36.1806 91.265 34.5675C93.6925 33.011 95.8262 30.8051 97.5012 28.1663V35.7477H102.815V1.31952H97.5012ZM94.7387 21.9301C93.3626 25.4502 91.1104 28.3518 88.3943 30.099C85.941 31.6761 83.4311 32.0884 81.3128 31.2638C79.1997 30.4392 77.6278 28.4343 76.8908 25.6151C76.0765 22.4867 76.3806 18.8274 77.7515 15.3073C80.4264 8.45255 86.5749 4.17479 91.1774 5.97351C95.7798 7.76708 97.4136 15.0753 94.7387 21.9301Z" fill="#020203"/>
<path d="M55.8011 36.7421C53.25 36.7421 50.6215 35.9226 48.1167 34.3094C44.4626 31.9592 41.4733 28.1556 39.6952 23.5996C35.9123 13.8999 38.8603 3.6539 46.2716 0.767708C53.6829 -2.11849 62.7898 3.41682 66.5727 13.1217C67.0572 14.3586 67.4386 15.6368 67.7169 16.9098L68.4127 20.1258H44.1121C44.2667 20.6412 44.442 21.1618 44.643 21.672C46.0139 25.1921 48.2713 28.0938 50.9874 29.841C53.4355 31.4181 55.9506 31.8304 58.0688 31.0058C60.0325 30.2378 61.5529 28.4236 62.3414 25.8879L67.4128 27.465C66.1347 31.5727 63.501 34.5877 60.0015 35.9535C58.6461 36.4792 57.2339 36.7421 55.8011 36.7421ZM43.3545 14.8121H61.5322C58.811 8.09658 52.75 3.93737 48.1991 5.71547C45.1532 6.90603 43.406 10.5138 43.3545 14.8121Z" fill="#020203"/>
</g>
<defs>
<clipPath id="clip0">
<rect width="316" height="37" fill="white"/>
</clipPath>
</defs>
</svg>
